<?xml version="1.0" encoding="UTF-8"?>
<svg xmlns="http://www.w3.org/2000/svg" width="148" height="55" viewBox="0 0 148 55" fill="none">
  <g clip-path="url(#clip0_11_103)">
    <path d="M144.934 26.8309L144.939 26.8268L136.051 21.8962C134.507 21.0397 133.549 19.4128 133.549 17.6471V17.2432C133.549 15.4775 134.507 13.8506 136.051 12.9942L144.941 8.06219L144.937 8.05803C145.559 7.76514 146.122 7.31539 146.564 6.70878C147.78 5.03332 147.583 2.67352 146.107 1.22016C144.354 -0.503882 141.543 -0.374787 139.952 1.45059C139.151 2.39312 136.376 7.80123 134.557 11.4214C133.733 13.0622 132.054 14.0963 130.218 14.0963H130.201C128.365 14.0963 126.686 13.0622 125.862 11.4214C124.042 7.80123 121.268 2.39312 120.467 1.45059C118.876 -0.374787 116.064 -0.502494 114.312 1.22016C112.836 2.67213 112.638 5.03193 113.854 6.70878C114.294 7.31539 114.857 7.76514 115.48 8.05803L115.476 8.06219L124.371 12.997C125.915 13.8534 126.872 15.4803 126.872 17.246V17.6458C126.872 19.4114 125.915 21.0383 124.371 21.8948L115.479 26.8282L115.483 26.8323C114.86 27.1252 114.297 27.575 113.857 28.1816C112.64 29.857 112.838 32.2182 114.315 33.6702C116.067 35.3928 118.878 35.2637 120.47 33.4398C121.272 32.4972 124.051 27.078 125.87 23.4578C126.695 21.8171 128.374 20.7829 130.209 20.7829C132.045 20.7829 133.724 21.8171 134.548 23.4578C136.368 27.078 139.148 32.4972 139.949 33.4398C141.54 35.2651 144.353 35.3928 146.104 33.6702C147.581 32.2182 147.778 29.8584 146.561 28.1816C146.121 27.575 145.558 27.1252 144.934 26.8323V26.8309Z" fill="#001A31"></path>
    <path d="M21.9585 27.1405C21.2703 27.1405 20.6278 27.3417 20.088 27.6874L11.7556 32.4486C11.0299 32.8637 10.2071 33.0816 9.37035 33.0816C7.71773 33.0816 6.37872 31.7421 6.37872 30.0888V0.410873H0V34.3184H5.61138H10.6469V34.3157H21.9571C24.2744 34.3157 25.6203 32.4806 25.6203 30.7288C25.6203 28.8576 23.9122 27.1405 21.9571 27.1405H21.9585Z" fill="#001A31"></path>
    <path d="M107.541 0.45668H101.16V34.3642H107.541V0.45668Z" fill="#001A31"></path>
    <path d="M41.6609 0.45668L27.2703 34.3628H34.4052L46.0193 5.40254L57.6347 34.3628H64.7683L50.3791 0.45668H41.6609Z" fill="#001A31"></path>
    <path d="M82.8374 0.456692H75.3H68.9199V34.3642H75.3V21.5103H82.8374C84.3221 21.5103 95.327 21.6005 95.327 10.9314C95.327 0.262355 83.9696 0.456692 82.8374 0.456692ZM83.2967 16.2562H75.3V5.70933H83.2967C84.7814 5.70933 88.8872 6.32426 88.8872 10.8815C88.8872 15.4386 84.7939 16.2549 83.2967 16.2549V16.2562Z" fill="#001A31"></path>
    <path d="M49.3463 23.8413C50.1071 22.004 49.2349 19.8977 47.3984 19.1366C45.5618 18.3756 43.4563 19.2481 42.6955 21.0854C41.9348 22.9226 42.8069 25.029 44.6435 25.79C46.4801 26.551 48.5856 25.6786 49.3463 23.8413Z" fill="#001A31"></path>
    <path d="M69.0808 44.274H72.207V52.5055H73.4864V44.274H76.6126V43.176H69.0808V44.274Z" fill="#001A31"></path>
    <path d="M81.1722 45.9023C80.2675 45.9023 79.4668 46.2896 79.0672 46.9753V43.1885H77.8406V52.5056H79.0672V49.0686C79.0672 48.6674 79.0672 48.0608 79.274 47.6985C79.4418 47.389 79.8942 46.8323 80.7989 46.8323C82.1934 46.8323 82.1934 48.0858 82.1934 48.6674V52.5056H83.4339V48.4481C83.4339 47.5042 83.3437 47.1946 83.2147 46.9364C82.84 46.148 81.859 45.9023 81.1736 45.9023H81.1722Z" fill="#001A31"></path>
    <path d="M88.3154 45.8509C87.9407 45.8509 87.1651 45.8898 86.5462 46.3284C85.5263 47.0391 85.2668 48.0983 85.2668 49.3781C85.2668 51.4325 86.2354 52.6999 88.2765 52.6999C89.5808 52.6999 90.2275 52.1571 90.5119 51.8337C90.9767 51.3298 91.0281 50.7995 91.0669 50.4761H89.8528C89.7487 51.4062 89.116 51.8198 88.3279 51.8198C86.9972 51.8198 86.4421 50.8245 86.4671 49.4808H91.1308C91.1571 48.4217 91.221 45.8495 88.3154 45.8495V45.8509ZM89.8917 48.6299H86.5198C86.5462 47.196 87.5022 46.7171 88.289 46.7171C89.7876 46.7171 89.9041 48.0094 89.8903 48.6299H89.8917Z" fill="#001A31"></path>
    <path d="M95.7167 45.9925C95.1742 46.0702 94.3985 46.3673 94.1668 47.2723L94.1404 46.0189H92.9138C92.9527 46.445 92.979 46.8975 92.979 47.3376V52.5069H94.2057V49.0561C94.2057 47.9442 94.5415 47.0919 95.9748 47.0919C96.1164 47.0919 96.2329 47.0919 96.3231 47.1044C96.4133 47.1169 96.491 47.1307 96.5562 47.1557V45.9675C96.3495 45.955 96.0789 45.9411 95.7167 45.9939V45.9925Z" fill="#001A31"></path>
    <path d="M102.938 47.7762C102.938 47.4792 102.925 47.1682 102.718 46.7809C102.37 46.1216 101.363 45.8245 100.419 45.8245C99.7352 45.8245 98.818 45.98 98.3268 46.5227C97.9521 46.9628 97.9133 47.4139 97.8744 47.7498H99.0886C99.1011 47.4917 99.1663 46.6518 100.393 46.6518C100.741 46.6518 101.271 46.7546 101.517 47.078C101.75 47.3626 101.75 47.711 101.75 48.5119C101.375 48.4855 101.181 48.4731 100.872 48.4731C100.355 48.4731 99.3217 48.5119 98.6237 48.8992C97.6677 49.4545 97.4873 50.2818 97.4873 50.7995C97.4873 51.8726 98.2879 52.7124 99.774 52.7124C100.317 52.7124 101.195 52.6083 101.776 51.5366C101.776 51.8726 101.803 52.1821 101.893 52.5055H102.99C102.9 51.8462 102.888 50.98 102.888 50.8773L102.939 47.7762H102.938ZM101.439 51.0591C101.142 51.5116 100.677 51.7573 100.057 51.7573C98.972 51.7573 98.7139 51.0466 98.7139 50.633C98.7139 49.3143 100.561 49.3143 101.052 49.3143C101.349 49.3143 101.529 49.3267 101.75 49.3531C101.724 50.2582 101.711 50.6191 101.441 51.0591H101.439Z" fill="#001A31"></path>
    <path d="M108.505 45.9148C107.975 45.9148 106.903 46.0702 106.296 47.0905L106.269 46.0175H105.043C105.069 46.638 105.082 46.7934 105.082 47.0766V54.9986H106.283V51.7809C106.632 52.3501 107.329 52.7499 108.273 52.7499C109.823 52.7499 111.231 51.6907 111.231 49.274C111.231 46.8573 109.901 45.9134 108.506 45.9134L108.505 45.9148ZM109.434 51.2257C109.021 51.7948 108.376 51.8587 108.065 51.8587C106.36 51.8587 106.243 50.2429 106.243 49.4545C106.243 48.8728 106.243 46.8184 108.18 46.8184C109.613 46.8184 109.963 48.033 109.963 49.1963C109.963 49.6613 109.898 50.5913 109.433 51.2257H109.434Z" fill="#001A31"></path>
    <path d="M115.597 45.8509C115.222 45.8509 114.446 45.8898 113.827 46.3284C112.808 47.0391 112.548 48.0983 112.548 49.3781C112.548 51.4325 113.517 52.6999 115.558 52.6999C116.862 52.6999 117.509 52.1571 117.793 51.8337C118.258 51.3298 118.309 50.7995 118.348 50.4761H117.134C117.03 51.4062 116.397 51.8198 115.61 51.8198C114.28 51.8198 113.725 50.8245 113.75 49.4808H118.413C118.44 48.4217 118.504 45.8495 115.598 45.8495L115.597 45.8509ZM117.173 48.6299H113.801C113.827 47.196 114.783 46.7171 115.57 46.7171C117.069 46.7171 117.185 48.0094 117.172 48.6299H117.173Z" fill="#001A31"></path>
    <path d="M125.736 46.0189H124.483V49.6891C124.483 50.0125 124.483 50.5164 124.211 50.9037C123.863 51.42 123.294 51.6269 122.686 51.6269C121.446 51.6269 121.304 50.8259 121.304 50.1929V46.0189H120.063V50.3734C120.063 51.6532 120.813 52.5708 122.414 52.5708C123.809 52.5708 124.248 51.8476 124.482 51.3951L124.508 52.5069H125.773C125.761 52.1446 125.735 51.4214 125.735 51.2923V46.0203L125.736 46.0189Z" fill="#001A31"></path>
    <path d="M129.444 44.2476L128.242 44.6349V45.9911H127.092V46.8823H128.242V51.2118C128.242 52.271 128.772 52.5944 129.882 52.5944C130.32 52.5944 130.67 52.5555 130.889 52.5166V51.5727C130.785 51.5991 130.554 51.638 130.308 51.638C129.442 51.638 129.442 51.0952 129.442 50.7718V46.8823H130.889V45.9911H129.442V44.2462L129.444 44.2476Z" fill="#001A31"></path>
    <path d="M133.616 46.0189H132.402V52.5056H133.616V46.0189Z" fill="#001A31"></path>
    <path d="M133.732 43.201H132.273V44.5322H133.732V43.201Z" fill="#001A31"></path>
    <path d="M138.317 51.756C137.025 51.756 136.702 50.515 136.702 49.1838C136.702 48.6924 136.702 46.7407 138.381 46.7407C139.556 46.7407 139.646 47.7998 139.673 48.0983H140.899C140.873 47.736 140.834 47.2071 140.357 46.6505C139.763 45.9397 138.794 45.8495 138.367 45.8495C137.075 45.8495 135.423 46.6505 135.423 49.3517C135.423 50.6954 135.81 51.3812 136.197 51.8323C136.881 52.5819 137.89 52.6721 138.328 52.6721C139.929 52.6721 140.873 51.613 140.951 50.3456H139.724C139.698 50.9786 139.349 51.7546 138.316 51.7546L138.317 51.756Z" fill="#001A31"></path>
    <path d="M144.131 48.5133C143.795 48.4231 143.214 48.2801 143.214 47.686C143.214 46.756 144.35 46.756 144.532 46.756C144.97 46.756 145.824 46.8337 145.785 47.8151H147.025C147.025 47.5444 147.025 47.2335 146.857 46.8712C146.47 46.0952 145.333 45.8634 144.519 45.8634C143.021 45.8634 141.987 46.6394 141.987 47.8276C141.987 49.1852 143.123 49.4559 144.481 49.7654C145.449 49.9847 145.901 50.1013 145.901 50.7343C145.901 50.9536 145.824 51.1743 145.695 51.3423C145.437 51.6657 145.062 51.756 144.558 51.756C143.383 51.756 143.125 51.0716 143.137 50.5802H141.858C141.846 52.1432 143.072 52.686 144.39 52.686C145.062 52.686 145.746 52.5958 146.315 52.246C146.792 51.9489 147.193 51.3284 147.193 50.6052C147.193 50.1916 147.064 49.739 146.702 49.4031C146.315 49.0408 145.926 48.9381 144.131 48.5119V48.5133Z" fill="#001A31"></path>
  </g>
  <defs>
    <clipPath id="clip0_11_103">
      <rect width="147.358" height="55" fill="white"></rect>
    </clipPath>
  </defs>
</svg>
